<svg xmlns="http://www.w3.org/2000/svg" width="51.523" height="31.477" viewBox="0 0 51.523 31.477">
  <path id="Path_460" data-name="Path 460" d="M353.023,293.968a12.312,12.312,0,0,0-7.395,2.408h0a4.95,4.95,0,0,1-5.711.06h-.06a14.327,14.327,0,0,0-7.515-2.468,18.5,18.5,0,0,0-8.236,1.445,15.309,15.309,0,0,1-5.832.542l-6.373-.963v30.4h10.761v-14.51c0-3.371,0-8.549,4.81-8.549s4.81,5.178,4.81,8.549V325.4h10.762v-14.51c0-3.612.18-8.308,5.17-8.308s4.449,5.178,4.449,8.308V325.4h10.761V306.009C363.363,299.025,360.718,293.968,353.023,293.968Z" transform="translate(-311.9 -293.919)" fill="#163259"/>
</svg>
